<svg xmlns="http://www.w3.org/2000/svg" xmlns:xlink="http://www.w3.org/1999/xlink" width="1080" zoomAndPan="magnify" viewBox="0 0 810 809.999993" height="1080" preserveAspectRatio="xMidYMid meet" version="1.0"><defs><clipPath id="337b96e356"><path d="M 13.207031 48.949219 L 796.957031 48.949219 L 796.957031 810 L 13.207031 810 Z M 13.207031 48.949219 " clip-rule="nonzero"/></clipPath><clipPath id="fb99589806"><path d="M 0.0742188 21.261719 L 809.949219 21.261719 L 809.949219 810 L 0.0742188 810 Z M 0.0742188 21.261719 " clip-rule="nonzero"/></clipPath></defs><g clip-path="url(#337b96e356)"><path fill="#ffffff" d="M 796.957031 440.824219 C 796.957031 447.238281 796.800781 453.648438 796.484375 460.054688 C 796.171875 466.460938 795.699219 472.855469 795.070312 479.234375 C 794.441406 485.617188 793.65625 491.980469 792.714844 498.324219 C 791.773438 504.667969 790.679688 510.988281 789.429688 517.277344 C 788.175781 523.566406 786.773438 529.820312 785.214844 536.042969 C 783.65625 542.265625 781.945312 548.445312 780.082031 554.582031 C 778.222656 560.71875 776.210938 566.804688 774.050781 572.84375 C 771.890625 578.882812 769.582031 584.863281 767.128906 590.789062 C 764.671875 596.714844 762.074219 602.574219 759.332031 608.375 C 756.589844 614.171875 753.707031 619.898438 750.6875 625.554688 C 747.664062 631.210938 744.503906 636.789062 741.207031 642.289062 C 737.90625 647.789062 734.476562 653.207031 730.914062 658.539062 C 727.351562 663.871094 723.660156 669.113281 719.839844 674.265625 C 716.019531 679.417969 712.074219 684.472656 708.007812 689.429688 C 703.9375 694.386719 699.75 699.242188 695.441406 703.992188 C 691.136719 708.746094 686.714844 713.386719 682.179688 717.921875 C 677.644531 722.457031 673.003906 726.878906 668.25 731.1875 C 663.5 735.492188 658.644531 739.679688 653.6875 743.75 C 648.726562 747.816406 643.671875 751.761719 638.523438 755.582031 C 633.371094 759.402344 628.128906 763.09375 622.796875 766.65625 C 617.464844 770.21875 612.046875 773.652344 606.546875 776.949219 C 601.046875 780.246094 595.46875 783.40625 589.8125 786.429688 C 584.15625 789.453125 578.429688 792.335938 572.632812 795.078125 C 566.832031 797.816406 560.972656 800.417969 555.046875 802.871094 C 549.121094 805.324219 543.140625 807.632812 537.101562 809.792969 C 531.0625 811.953125 524.976562 813.964844 518.839844 815.828125 C 512.699219 817.6875 506.523438 819.398438 500.300781 820.957031 C 494.078125 822.515625 487.824219 823.917969 481.535156 825.171875 C 475.242188 826.421875 468.925781 827.519531 462.582031 828.457031 C 456.238281 829.398438 449.875 830.183594 443.492188 830.8125 C 437.109375 831.441406 430.71875 831.914062 424.3125 832.226562 C 417.90625 832.542969 411.496094 832.699219 405.082031 832.699219 C 398.667969 832.699219 392.261719 832.542969 385.855469 832.230469 C 379.449219 831.914062 373.054688 831.441406 366.671875 830.8125 C 360.289062 830.183594 353.925781 829.398438 347.582031 828.457031 C 341.238281 827.519531 334.921875 826.421875 328.632812 825.171875 C 322.339844 823.917969 316.085938 822.515625 309.863281 820.957031 C 303.644531 819.398438 297.464844 817.6875 291.328125 815.828125 C 285.191406 813.964844 279.101562 811.953125 273.0625 809.792969 C 267.027344 807.632812 261.042969 805.324219 255.117188 802.871094 C 249.195312 800.417969 243.332031 797.816406 237.535156 795.078125 C 231.738281 792.335938 226.011719 789.453125 220.355469 786.429688 C 214.699219 783.40625 209.121094 780.246094 203.617188 776.949219 C 198.117188 773.652344 192.703125 770.21875 187.367188 766.65625 C 182.035156 763.09375 176.792969 759.402344 171.644531 755.582031 C 166.492188 751.761719 161.4375 747.816406 156.480469 743.75 C 151.523438 739.679688 146.667969 735.492188 141.914062 731.1875 C 137.164062 726.878906 132.519531 722.457031 127.984375 717.921875 C 123.449219 713.386719 119.03125 708.746094 114.722656 703.992188 C 110.414062 699.242188 106.226562 694.386719 102.160156 689.429688 C 98.089844 684.472656 94.144531 679.417969 90.324219 674.265625 C 86.503906 669.113281 82.8125 663.871094 79.25 658.539062 C 75.6875 653.207031 72.257812 647.789062 68.960938 642.289062 C 65.664062 636.789062 62.503906 631.210938 59.480469 625.554688 C 56.457031 619.898438 53.574219 614.171875 50.832031 608.375 C 48.089844 602.574219 45.492188 596.714844 43.039062 590.789062 C 40.582031 584.863281 38.277344 578.882812 36.117188 572.84375 C 33.953125 566.804688 31.945312 560.71875 30.082031 554.582031 C 28.21875 548.445312 26.511719 542.265625 24.953125 536.042969 C 23.394531 529.820312 21.988281 523.566406 20.738281 517.277344 C 19.488281 510.988281 18.390625 504.667969 17.449219 498.324219 C 16.507812 491.980469 15.722656 485.617188 15.09375 479.234375 C 14.464844 472.855469 13.996094 466.460938 13.679688 460.054688 C 13.363281 453.648438 13.207031 447.238281 13.207031 440.824219 C 13.207031 434.414062 13.363281 428.003906 13.679688 421.597656 C 13.996094 415.191406 14.464844 408.796875 15.09375 402.414062 C 15.722656 396.03125 16.507812 389.667969 17.449219 383.324219 C 18.390625 376.980469 19.488281 370.664062 20.738281 364.375 C 21.988281 358.085938 23.394531 351.828125 24.953125 345.609375 C 26.511719 339.386719 28.21875 333.207031 30.082031 327.070312 C 31.945312 320.933594 33.953125 314.84375 36.117188 308.808594 C 38.277344 302.769531 40.582031 296.785156 43.039062 290.863281 C 45.492188 284.9375 48.089844 279.074219 50.832031 273.277344 C 53.574219 267.480469 56.457031 261.753906 59.480469 256.097656 C 62.503906 250.441406 65.664062 244.863281 68.960938 239.363281 C 72.257812 233.859375 75.6875 228.445312 79.25 223.113281 C 82.8125 217.777344 86.503906 212.539062 90.324219 207.386719 C 94.144531 202.234375 98.089844 197.179688 102.160156 192.222656 C 106.226562 187.265625 110.414062 182.410156 114.722656 177.660156 C 119.03125 172.90625 123.449219 168.261719 127.984375 163.726562 C 132.519531 159.191406 137.164062 154.773438 141.914062 150.464844 C 146.667969 146.160156 151.523438 141.96875 156.480469 137.902344 C 161.4375 133.832031 166.492188 129.890625 171.644531 126.070312 C 176.792969 122.25 182.035156 118.554688 187.367188 114.992188 C 192.703125 111.429688 198.117188 108 203.617188 104.703125 C 209.121094 101.40625 214.699219 98.246094 220.355469 95.222656 C 226.011719 92.199219 231.738281 89.316406 237.535156 86.574219 C 243.332031 83.832031 249.195312 81.234375 255.117188 78.78125 C 261.042969 76.324219 267.027344 74.019531 273.0625 71.859375 C 279.101562 69.699219 285.191406 67.6875 291.328125 65.824219 C 297.464844 63.960938 303.644531 62.253906 309.863281 60.695312 C 316.085938 59.136719 322.339844 57.730469 328.632812 56.480469 C 334.921875 55.230469 341.238281 54.132812 347.582031 53.191406 C 353.925781 52.25 360.289062 51.464844 366.671875 50.835938 C 373.054688 50.207031 379.449219 49.738281 385.855469 49.421875 C 392.261719 49.109375 398.667969 48.949219 405.082031 48.949219 C 411.496094 48.949219 417.90625 49.109375 424.3125 49.421875 C 430.71875 49.738281 437.109375 50.207031 443.492188 50.835938 C 449.875 51.464844 456.238281 52.25 462.582031 53.191406 C 468.925781 54.132812 475.242188 55.230469 481.535156 56.480469 C 487.824219 57.730469 494.078125 59.136719 500.300781 60.695312 C 506.523438 62.253906 512.699219 63.960938 518.839844 65.824219 C 524.976562 67.6875 531.0625 69.699219 537.101562 71.859375 C 543.140625 74.019531 549.121094 76.324219 555.046875 78.78125 C 560.972656 81.234375 566.832031 83.832031 572.632812 86.574219 C 578.429688 89.316406 584.15625 92.199219 589.8125 95.222656 C 595.46875 98.246094 601.046875 101.40625 606.546875 104.703125 C 612.046875 108 617.464844 111.429688 622.796875 114.992188 C 628.128906 118.554688 633.371094 122.25 638.523438 126.070312 C 643.671875 129.890625 648.726562 133.832031 653.6875 137.902344 C 658.644531 141.96875 663.5 146.160156 668.25 150.464844 C 673.003906 154.773438 677.644531 159.191406 682.179688 163.726562 C 686.714844 168.261719 691.136719 172.90625 695.441406 177.660156 C 699.75 182.410156 703.9375 187.265625 708.007812 192.222656 C 712.074219 197.179688 716.019531 202.234375 719.839844 207.386719 C 723.660156 212.539062 727.351562 217.777344 730.914062 223.113281 C 734.476562 228.445312 737.90625 233.859375 741.207031 239.363281 C 744.503906 244.863281 747.664062 250.441406 750.6875 256.097656 C 753.707031 261.753906 756.589844 267.480469 759.332031 273.277344 C 762.074219 279.074219 764.671875 284.9375 767.128906 290.863281 C 769.582031 296.785156 771.890625 302.769531 774.050781 308.808594 C 776.210938 314.84375 778.222656 320.933594 780.082031 327.070312 C 781.945312 333.207031 783.65625 339.386719 785.214844 345.609375 C 786.773438 351.828125 788.175781 358.085938 789.429688 364.375 C 790.679688 370.664062 791.773438 376.980469 792.714844 383.324219 C 793.65625 389.667969 794.441406 396.03125 795.070312 402.414062 C 795.699219 408.796875 796.171875 415.191406 796.484375 421.597656 C 796.800781 428.003906 796.957031 434.414062 796.957031 440.824219 Z M 796.957031 440.824219 " fill-opacity="1" fill-rule="nonzero"/></g><path fill="#b18b3f" d="M 378.792969 406.070312 C 373.863281 439.808594 350.632812 466.9375 328.027344 493.324219 C 311.953125 512.09375 295.328125 531.5 284.425781 553.671875 C 275.390625 572.035156 271.222656 590.195312 271.703125 609.632812 C 277.113281 585.398438 290.976562 563.246094 306.40625 543.472656 C 324.707031 520.023438 345.738281 498.492188 360.78125 472.828125 C 372.589844 452.6875 380.433594 428.996094 378.792969 406.070312 " fill-opacity="1" fill-rule="nonzero"/><g clip-path="url(#fb99589806)"><path fill="#b18b3f" d="M 405.007812 21.261719 C 181.367188 21.261719 0.0742188 202.621094 0.0742188 426.335938 C 0.0742188 595.25 103.425781 740.007812 250.320312 800.796875 C 249.03125 797.160156 248.910156 793.070312 250.3125 789.097656 C 250.335938 789.027344 250.363281 788.953125 250.386719 788.886719 L 268.234375 739.472656 C 270.410156 733.449219 274.191406 729.011719 278.640625 726.925781 L 338.945312 726.925781 L 280.9375 716.613281 C 274.714844 715.503906 269.902344 710.304688 269.617188 703.988281 C 269.609375 703.765625 269.601562 703.542969 269.601562 703.320312 C 269.601562 696.222656 274.679688 690.316406 281.398438 689.023438 C 281.386719 688.933594 281.375 688.847656 281.363281 688.761719 L 294.921875 688.761719 C 296.96875 683.867188 298.105469 678.496094 298.105469 672.859375 C 298.105469 652.128906 282.792969 634.980469 262.871094 632.097656 C 241.332031 511.308594 377.769531 472.871094 368.128906 384.0625 C 356.5 400.492188 337.359375 411.222656 315.703125 411.222656 C 303.773438 411.222656 292.601562 407.964844 283.03125 402.292969 L 283.015625 402.300781 C 268.308594 406.25 256.546875 417.390625 251.726562 431.722656 L 251.71875 431.722656 C 246.203125 433.300781 240.378906 434.144531 234.355469 434.144531 C 226.71875 434.144531 219.402344 432.78125 212.628906 430.292969 L 212.628906 371.855469 C 239.355469 355.558594 262.371094 333.773438 280.089844 308.046875 L 280.089844 286.800781 C 297.71875 252.824219 329.332031 227.292969 367.300781 217.808594 C 363.097656 206.324219 356.050781 195.808594 346.652344 188.011719 C 383.5 187.914062 419.472656 203.648438 445.027344 230.203125 C 441.128906 217.714844 422.902344 201.265625 422.902344 201.265625 C 509.75 188.011719 586.226562 262.484375 585.484375 330.074219 C 571.007812 300.738281 529.429688 283.652344 529.429688 283.652344 C 529.429688 283.652344 604.621094 331.003906 596.824219 420.503906 C 577.519531 371.113281 556.527344 365.355469 556.527344 365.355469 C 556.527344 365.355469 617.042969 436.664062 585.207031 542.503906 C 578.804688 484.941406 552.816406 454.859375 552.816406 454.859375 C 588.824219 557.730469 549.476562 639.804688 549.476562 639.804688 C 554.300781 572.214844 515.875 532.476562 515.875 532.476562 C 515.875 532.476562 539.132812 571.300781 529.523438 624.828125 C 507.566406 633.292969 491.984375 654.597656 491.984375 679.546875 C 491.984375 682.679688 492.234375 685.757812 492.710938 688.761719 L 503.402344 688.761719 C 503.398438 688.867188 503.390625 688.972656 503.386719 689.082031 C 509.957031 690.488281 514.886719 696.328125 514.886719 703.320312 C 514.886719 711.367188 508.367188 717.882812 500.328125 717.882812 L 500.070312 717.882812 C 499.308594 717.882812 498.6875 718.507812 498.6875 719.269531 L 498.6875 724.210938 C 498.6875 724.972656 499.308594 725.597656 500.070312 725.597656 C 506.917969 725.597656 513.179688 730.964844 516.253906 739.472656 L 534.101562 788.886719 C 536.691406 796.058594 536.554688 803.773438 534.503906 810.257812 C 694.636719 756.230469 809.949219 604.753906 809.949219 426.335938 C 809.949219 202.621094 628.648438 21.261719 405.007812 21.261719 " fill-opacity="1" fill-rule="nonzero"/></g><path fill="#b18b3f" d="M 319.609375 307.699219 C 325.839844 305.171875 329.898438 298.175781 329.691406 291.453125 C 335.019531 284.21875 335.851562 270.519531 335.851562 270.519531 C 332.847656 279.753906 317.8125 294.980469 300.667969 303.636719 C 305.199219 308.605469 313.375 310.226562 319.609375 307.699219 " fill-opacity="1" fill-rule="nonzero"/></svg>